<svg width="322" height="62" viewBox="0 0 322 62" fill="none" xmlns="http://www.w3.org/2000/svg">
<path d="M48.9384 13.6754H50.4712V12.1426V3.83838V2.30558H48.9384H4H2.4672V3.83838V12.1426V13.6754H4H20.8003V45.939V51.5522L23.6531 46.718L31.9573 32.6465L32.17 32.286V31.8675V13.6754H48.9384ZM90.7646 32.4556H92.2974V30.9228V22.5547V21.0219H90.7646H64.5425H63.0097V22.5547V30.9228V32.4556H64.5425H90.7646ZM94.5014 51.1719H96.0342V49.6391V41.3349V39.8021H94.5014H64.6064C63.7549 39.8021 63.3631 39.5847 63.1671 39.3887C62.9659 39.1875 62.7537 38.8016 62.7537 37.9813V13.6754H94.5014H96.0342V12.1426V3.83838V2.30558H94.5014H57.1007C56.3179 2.30558 55.5622 2.44629 54.8504 2.74288C54.1586 3.03113 53.5425 3.44031 53.0146 3.96822L52.9991 3.9837L52.9841 3.99962C52.4884 4.52441 52.1018 5.13041 51.8212 5.80398C51.5275 6.50899 51.3839 7.25306 51.3839 8.02241V37.9813C51.3839 40.3087 51.7983 42.384 52.7034 44.1439L52.7094 44.1557L52.7157 44.1673C53.5873 45.7928 54.6797 47.1607 56.0047 48.2403L56.0167 48.2501L56.0289 48.2596C57.3443 49.288 58.7822 50.0399 60.3375 50.5017C61.8098 50.9388 63.215 51.1719 64.5425 51.1719H94.5014ZM110.681 30.9228V32.4556H112.214H138.468H140V30.9228V22.5547V21.0219H138.468H112.214H110.681V22.5547V30.9228ZM110.425 49.6391V13.6754H142.173H143.705V12.1426V3.83838V2.30558H142.173H104.772C103.989 2.30558 103.233 2.44629 102.521 2.74288C101.83 3.03113 101.214 3.44031 100.686 3.9682L100.67 3.9837L100.655 3.99962C100.16 4.52442 99.7729 5.13042 99.4923 5.80397C99.1985 6.509 99.055 7.25308 99.055 8.02241V49.6391V51.1719H100.588H108.892H110.425V49.6391Z" fill="#6200DF" stroke="#6200DF" stroke-width="3.06559"/>
<g clip-path="url(#clip0_176_308)">
<path d="M152.326 0.845703C151.641 0.845703 150.97 1.04904 150.4 1.43C149.83 1.81097 149.386 2.35244 149.123 2.98596C148.861 3.61948 148.792 4.31659 148.926 4.98913C149.06 5.66167 149.39 6.27943 149.875 6.76431C150.36 7.24918 150.977 7.57938 151.65 7.71316C152.323 7.84694 153.02 7.77828 153.653 7.51587C154.287 7.25345 154.828 6.80907 155.209 6.23892C155.59 5.66877 155.793 4.99846 155.793 4.31274C155.793 3.39322 155.428 2.51137 154.778 1.86117C154.128 1.21098 153.246 0.845703 152.326 0.845703ZM152.326 7.08637C151.778 7.08637 151.242 6.9237 150.785 6.61893C150.329 6.31416 149.974 5.88098 149.764 5.37416C149.554 4.86735 149.499 4.30966 149.606 3.77163C149.713 3.2336 149.977 2.73939 150.365 2.35149C150.753 1.96359 151.247 1.69943 151.785 1.59241C152.323 1.48538 152.881 1.54031 153.388 1.75024C153.895 1.96017 154.328 2.31567 154.633 2.77179C154.937 3.22792 155.1 3.76417 155.1 4.31274C155.1 5.04835 154.808 5.75384 154.288 6.27399C153.768 6.79415 153.062 7.08637 152.326 7.08637Z" fill="white"/>
<path d="M153.711 3.61726C153.711 3.3414 153.602 3.07685 153.406 2.88179C153.211 2.68673 152.947 2.57715 152.671 2.57715H150.938V6.04419H151.631V4.65737H152.137L153.063 6.04419H153.895L152.941 4.61577C153.161 4.55655 153.356 4.4268 153.495 4.24642C153.634 4.06604 153.71 3.84501 153.711 3.61726ZM152.671 3.96396H151.631V3.27056H152.671C152.763 3.27056 152.851 3.30708 152.916 3.3721C152.981 3.43712 153.018 3.52531 153.018 3.61726C153.018 3.70921 152.981 3.7974 152.916 3.86242C152.851 3.92744 152.763 3.96396 152.671 3.96396Z" fill="white"/>
</g>
<path d="M178.34 3.51284V5.86346H174.217V17H171.867V5.86346H167.743V3.51284H178.34ZM179.418 7.36631H181.769V17H179.418V7.36631ZM180.613 6.12357C180.266 6.12357 179.974 6.01118 179.736 5.78639C179.498 5.55518 179.38 5.26617 179.38 4.91936C179.38 4.57897 179.498 4.29317 179.736 4.06196C179.974 3.83075 180.263 3.71515 180.603 3.71515C180.944 3.71515 181.229 3.83075 181.461 4.06196C181.698 4.29317 181.817 4.57897 181.817 4.91936C181.817 5.26617 181.701 5.55518 181.47 5.78639C181.239 6.01118 180.953 6.12357 180.613 6.12357ZM184.009 17V7.36631H186.36V8.22371C186.687 7.8769 187.079 7.60395 187.535 7.40485C187.991 7.19933 188.482 7.09657 189.009 7.09657C189.677 7.09657 190.29 7.25392 190.849 7.56862C191.414 7.88332 191.864 8.30399 192.198 8.83063C192.538 8.30399 192.988 7.88332 193.547 7.56862C194.105 7.25392 194.719 7.09657 195.387 7.09657C196.093 7.09657 196.732 7.26998 197.304 7.61679C197.882 7.95718 198.341 8.41639 198.681 8.99441C199.028 9.56601 199.202 10.205 199.202 10.9115V17H196.851V11.5377C196.851 11.1652 196.758 10.8248 196.572 10.5165C196.392 10.2018 196.148 9.95135 195.839 9.7651C195.538 9.57243 195.197 9.47609 194.818 9.47609C194.439 9.47609 194.096 9.56922 193.787 9.75547C193.486 9.9353 193.242 10.1794 193.055 10.4876C192.869 10.7959 192.776 11.1459 192.776 11.5377V17H190.425V11.5377C190.425 11.1459 190.335 10.7959 190.156 10.4876C189.976 10.1794 189.732 9.9353 189.423 9.75547C189.115 9.56922 188.771 9.47609 188.393 9.47609C188.02 9.47609 187.68 9.57243 187.371 9.7651C187.063 9.95135 186.816 10.2018 186.63 10.5165C186.45 10.8248 186.36 11.1652 186.36 11.5377V17H184.009ZM205.182 17.2505C204.296 17.2505 203.487 17.0225 202.755 16.5665C202.029 16.1105 201.448 15.4971 201.011 14.7265C200.581 13.9558 200.365 13.1048 200.365 12.1735C200.365 11.4735 200.491 10.8184 200.741 10.2083C200.992 9.5917 201.335 9.05221 201.772 8.58979C202.215 8.12095 202.729 7.75487 203.313 7.49155C203.898 7.22823 204.521 7.09657 205.182 7.09657C205.934 7.09657 206.621 7.25713 207.244 7.57826C207.873 7.89296 208.406 8.32647 208.843 8.8788C209.28 9.43113 209.598 10.0605 209.797 10.767C209.996 11.4735 210.041 12.2121 209.932 12.9828H202.889C202.979 13.3424 203.127 13.6667 203.333 13.9558C203.538 14.2383 203.798 14.4663 204.113 14.6397C204.428 14.8067 204.784 14.8934 205.182 14.8999C205.593 14.9063 205.966 14.8099 206.3 14.6108C206.64 14.4053 206.923 14.1292 207.148 13.7823L209.546 14.3411C209.155 15.1953 208.57 15.8953 207.793 16.4412C207.016 16.9807 206.146 17.2505 205.182 17.2505ZM202.812 11.2198H207.552C207.481 10.8344 207.331 10.4876 207.099 10.1794C206.875 9.86465 206.595 9.61417 206.261 9.42792C205.927 9.24167 205.568 9.14855 205.182 9.14855C204.797 9.14855 204.44 9.24167 204.113 9.42792C203.785 9.60775 203.506 9.85502 203.275 10.1697C203.05 10.478 202.896 10.828 202.812 11.2198ZM211.349 17V2.54947H213.699V17H211.349ZM220.103 17.2505C219.217 17.2505 218.408 17.0225 217.675 16.5665C216.95 16.1105 216.369 15.4971 215.932 14.7265C215.501 13.9558 215.286 13.1048 215.286 12.1735C215.286 11.4735 215.412 10.8184 215.662 10.2083C215.913 9.5917 216.256 9.05221 216.693 8.58979C217.136 8.12095 217.65 7.75487 218.234 7.49155C218.819 7.22823 219.442 7.09657 220.103 7.09657C220.855 7.09657 221.542 7.25713 222.165 7.57826C222.794 7.89296 223.327 8.32647 223.764 8.8788C224.201 9.43113 224.519 10.0605 224.718 10.767C224.917 11.4735 224.962 12.2121 224.853 12.9828H217.81C217.9 13.3424 218.048 13.6667 218.254 13.9558C218.459 14.2383 218.719 14.4663 219.034 14.6397C219.349 14.8067 219.705 14.8934 220.103 14.8999C220.514 14.9063 220.887 14.8099 221.221 14.6108C221.561 14.4053 221.844 14.1292 222.068 13.7823L224.467 14.3411C224.075 15.1953 223.491 15.8953 222.714 16.4412C221.937 16.9807 221.067 17.2505 220.103 17.2505ZM217.733 11.2198H222.473C222.402 10.8344 222.251 10.4876 222.02 10.1794C221.795 9.86465 221.516 9.61417 221.182 9.42792C220.848 9.24167 220.489 9.14855 220.103 9.14855C219.718 9.14855 219.361 9.24167 219.034 9.42792C218.706 9.60775 218.427 9.85502 218.196 10.1697C217.971 10.478 217.817 10.828 217.733 11.2198ZM229.337 17.1734C228.836 17.1413 228.351 17.0417 227.883 16.8748C227.42 16.7014 227.009 16.4669 226.649 16.1715C226.29 15.8761 226.014 15.5228 225.821 15.1118L227.805 14.264C227.883 14.3925 228.008 14.5306 228.181 14.6783C228.355 14.8196 228.56 14.9384 228.798 15.0347C229.042 15.1311 229.308 15.1792 229.597 15.1792C229.841 15.1792 230.073 15.1471 230.291 15.0829C230.516 15.0122 230.696 14.9063 230.83 14.765C230.972 14.6237 231.042 14.4407 231.042 14.2159C231.042 13.9782 230.959 13.7952 230.792 13.6667C230.631 13.5319 230.426 13.4323 230.175 13.3681C229.931 13.2975 229.694 13.2332 229.462 13.1754C228.852 13.0534 228.284 12.8639 227.757 12.607C227.237 12.3501 226.816 12.0194 226.495 11.6148C226.181 11.2037 226.023 10.7092 226.023 10.1312C226.023 9.49536 226.19 8.94624 226.524 8.48382C226.865 8.02141 227.305 7.66496 227.844 7.41448C228.39 7.16401 228.978 7.03877 229.607 7.03877C230.371 7.03877 231.071 7.19933 231.707 7.52045C232.349 7.83515 232.857 8.28151 233.229 8.85954L231.37 9.95778C231.28 9.80364 231.155 9.66234 230.994 9.53389C230.834 9.39902 230.651 9.28984 230.445 9.20635C230.24 9.11643 230.024 9.06505 229.8 9.05221C229.511 9.03936 229.247 9.06505 229.01 9.12928C228.772 9.1935 228.579 9.30269 228.432 9.45682C228.29 9.61096 228.22 9.81648 228.22 10.0734C228.22 10.3174 228.316 10.5005 228.509 10.6225C228.701 10.7381 228.933 10.828 229.202 10.8922C229.479 10.9565 229.742 11.0271 229.992 11.1042C230.557 11.2904 231.087 11.5184 231.582 11.7882C232.083 12.0579 232.484 12.3887 232.786 12.7804C233.088 13.1722 233.232 13.6411 233.22 14.187C233.22 14.8099 233.033 15.3559 232.661 15.8247C232.288 16.2871 231.807 16.6403 231.216 16.8844C230.631 17.1284 230.005 17.2248 229.337 17.1734ZM237.71 17.1734C237.209 17.1413 236.724 17.0417 236.256 16.8748C235.793 16.7014 235.382 16.4669 235.022 16.1715C234.663 15.8761 234.387 15.5228 234.194 15.1118L236.178 14.264C236.256 14.3925 236.381 14.5306 236.554 14.6783C236.728 14.8196 236.933 14.9384 237.171 15.0347C237.415 15.1311 237.681 15.1792 237.97 15.1792C238.214 15.1792 238.446 15.1471 238.664 15.0829C238.889 15.0122 239.069 14.9063 239.203 14.765C239.345 14.6237 239.415 14.4407 239.415 14.2159C239.415 13.9782 239.332 13.7952 239.165 13.6667C239.004 13.5319 238.799 13.4323 238.548 13.3681C238.304 13.2975 238.067 13.2332 237.835 13.1754C237.225 13.0534 236.657 12.8639 236.13 12.607C235.61 12.3501 235.189 12.0194 234.868 11.6148C234.554 11.2037 234.396 10.7092 234.396 10.1312C234.396 9.49536 234.563 8.94624 234.897 8.48382C235.238 8.02141 235.678 7.66496 236.217 7.41448C236.763 7.16401 237.351 7.03877 237.98 7.03877C238.744 7.03877 239.444 7.19933 240.08 7.52045C240.722 7.83515 241.23 8.28151 241.602 8.85954L239.743 9.95778C239.653 9.80364 239.528 9.66234 239.367 9.53389C239.207 9.39902 239.024 9.28984 238.818 9.20635C238.613 9.11643 238.397 9.06505 238.173 9.05221C237.884 9.03936 237.62 9.06505 237.383 9.12928C237.145 9.1935 236.952 9.30269 236.805 9.45682C236.663 9.61096 236.593 9.81648 236.593 10.0734C236.593 10.3174 236.689 10.5005 236.882 10.6225C237.074 10.7381 237.306 10.828 237.575 10.8922C237.852 10.9565 238.115 11.0271 238.365 11.1042C238.931 11.2904 239.46 11.5184 239.955 11.7882C240.456 12.0579 240.857 12.3887 241.159 12.7804C241.461 13.1722 241.605 13.6411 241.593 14.187C241.593 14.8099 241.406 15.3559 241.034 15.8247C240.661 16.2871 240.18 16.6403 239.589 16.8844C239.004 17.1284 238.378 17.2248 237.71 17.1734ZM168.129 37V23.5128H176.587V25.8635H170.479V28.5994H175.325V30.95H170.479V34.6494H176.587V37H168.129ZM187.528 30.9115V37H185.177V31.5281C185.177 31.1491 185.084 30.8055 184.898 30.4973C184.711 30.1826 184.461 29.9353 184.146 29.7555C183.838 29.5692 183.494 29.4761 183.115 29.4761C182.736 29.4761 182.39 29.5692 182.075 29.7555C181.767 29.9353 181.519 30.1826 181.333 30.4973C181.153 30.8055 181.063 31.1491 181.063 31.5281V37H178.713L178.703 27.3663H181.054L181.063 28.2237C181.391 27.8769 181.783 27.6039 182.239 27.4048C182.695 27.1993 183.186 27.0966 183.713 27.0966C184.413 27.0966 185.052 27.27 185.63 27.6168C186.208 27.9572 186.667 28.4164 187.007 28.9944C187.354 29.566 187.528 30.205 187.528 30.9115ZM194.611 29.7169H192.742V37H190.391V29.7169H188.965V27.3663H190.391V24.3413H192.742V27.3663H194.611V29.7169ZM200.365 37.2505C199.479 37.2505 198.67 37.0225 197.938 36.5665C197.212 36.1105 196.631 35.4971 196.194 34.7265C195.764 33.9558 195.549 33.1048 195.549 32.1735C195.549 31.4735 195.674 30.8184 195.924 30.2083C196.175 29.5917 196.518 29.0522 196.955 28.5898C197.398 28.121 197.912 27.7549 198.496 27.4916C199.081 27.2282 199.704 27.0966 200.365 27.0966C201.117 27.0966 201.804 27.2571 202.427 27.5783C203.056 27.893 203.589 28.3265 204.026 28.8788C204.463 29.4311 204.781 30.0605 204.98 30.767C205.179 31.4735 205.224 32.2121 205.115 32.9828H198.073C198.163 33.3424 198.31 33.6667 198.516 33.9558C198.721 34.2383 198.981 34.4663 199.296 34.6397C199.611 34.8067 199.967 34.8934 200.365 34.8999C200.776 34.9063 201.149 34.8099 201.483 34.6108C201.823 34.4053 202.106 34.1292 202.331 33.7823L204.729 34.3411C204.338 35.1953 203.753 35.8953 202.976 36.4412C202.199 36.9807 201.329 37.2505 200.365 37.2505ZM197.996 31.2198H202.735C202.665 30.8344 202.514 30.4876 202.283 30.1794C202.058 29.8647 201.778 29.6142 201.444 29.4279C201.11 29.2417 200.751 29.1485 200.365 29.1485C199.98 29.1485 199.624 29.2417 199.296 29.4279C198.969 29.6078 198.689 29.855 198.458 30.1697C198.233 30.478 198.079 30.828 197.996 31.2198ZM206.692 37L206.682 27.3663H209.033L209.043 28.2237C209.37 27.8769 209.762 27.6039 210.218 27.4048C210.674 27.1993 211.165 27.0966 211.692 27.0966C212.045 27.0966 212.398 27.148 212.751 27.2507L211.827 29.6206C211.583 29.5243 211.339 29.4761 211.094 29.4761C210.716 29.4761 210.369 29.5692 210.054 29.7555C209.746 29.9353 209.499 30.1826 209.312 30.4973C209.132 30.8055 209.043 31.1491 209.043 31.5281V37H206.692ZM219.259 29.7169H217.39V37H215.04V29.7169H213.614V27.3663H215.04V24.3413H217.39V27.3663H219.259V29.7169ZM228.039 27.3663H230.39V37H228.039L227.933 35.8054C227.67 36.2357 227.32 36.5858 226.883 36.8555C226.453 37.1188 225.942 37.2505 225.351 37.2505C224.638 37.2505 223.97 37.1156 223.347 36.8459C222.724 36.5761 222.175 36.2036 221.7 35.7284C221.231 35.2531 220.862 34.704 220.592 34.081C220.329 33.458 220.197 32.7901 220.197 32.0772C220.197 31.39 220.322 30.7445 220.573 30.1408C220.83 29.5371 221.186 29.0073 221.642 28.5513C222.098 28.0953 222.625 27.7388 223.222 27.4819C223.82 27.225 224.462 27.0966 225.149 27.0966C225.785 27.0966 226.353 27.2379 226.854 27.5205C227.362 27.803 227.792 28.1627 228.145 28.5994L228.039 27.3663ZM225.293 34.9866C225.794 34.9866 226.238 34.8613 226.623 34.6108C227.008 34.3604 227.31 34.0232 227.528 33.5993C227.747 33.169 227.856 32.697 227.856 32.1832C227.856 31.6629 227.747 31.1909 227.528 30.767C227.31 30.3367 227.005 29.9963 226.613 29.7458C226.228 29.4954 225.788 29.3701 225.293 29.3701C224.799 29.3701 224.346 29.4986 223.935 29.7555C223.531 30.0059 223.206 30.3431 222.962 30.767C222.724 31.1909 222.606 31.6629 222.606 32.1832C222.606 32.7034 222.728 33.1754 222.972 33.5993C223.216 34.0232 223.54 34.3604 223.945 34.6108C224.356 34.8613 224.805 34.9866 225.293 34.9866ZM232.309 27.3663H234.66V37H232.309V27.3663ZM233.504 26.1236C233.157 26.1236 232.865 26.0112 232.627 25.7864C232.39 25.5552 232.271 25.2662 232.271 24.9194C232.271 24.579 232.39 24.2932 232.627 24.062C232.865 23.8308 233.154 23.7151 233.494 23.7151C233.835 23.7151 234.12 23.8308 234.352 24.062C234.589 24.2932 234.708 24.579 234.708 24.9194C234.708 25.2662 234.593 25.5552 234.361 25.7864C234.13 26.0112 233.844 26.1236 233.504 26.1236ZM245.725 30.9115V37H243.374V31.5281C243.374 31.1491 243.281 30.8055 243.095 30.4973C242.909 30.1826 242.658 29.9353 242.343 29.7555C242.035 29.5692 241.692 29.4761 241.313 29.4761C240.934 29.4761 240.587 29.5692 240.272 29.7555C239.964 29.9353 239.717 30.1826 239.53 30.4973C239.351 30.8055 239.261 31.1491 239.261 31.5281V37H236.91L236.9 27.3663H239.251L239.261 28.2237C239.588 27.8769 239.98 27.6039 240.436 27.4048C240.892 27.1993 241.383 27.0966 241.91 27.0966C242.61 27.0966 243.249 27.27 243.827 27.6168C244.405 27.9572 244.864 28.4164 245.205 28.9944C245.551 29.566 245.725 30.205 245.725 30.9115ZM247.644 37V27.3663H249.995V28.2237C250.322 27.8769 250.714 27.6039 251.17 27.4048C251.626 27.1993 252.117 27.0966 252.644 27.0966C253.312 27.0966 253.925 27.2539 254.484 27.5686C255.049 27.8833 255.499 28.304 255.833 28.8306C256.173 28.304 256.623 27.8833 257.182 27.5686C257.74 27.2539 258.354 27.0966 259.022 27.0966C259.728 27.0966 260.367 27.27 260.939 27.6168C261.517 27.9572 261.976 28.4164 262.316 28.9944C262.663 29.566 262.837 30.205 262.837 30.9115V37H260.486V31.5377C260.486 31.1652 260.393 30.8248 260.207 30.5165C260.027 30.2018 259.783 29.9514 259.474 29.7651C259.173 29.5724 258.832 29.4761 258.453 29.4761C258.074 29.4761 257.731 29.5692 257.422 29.7555C257.121 29.9353 256.877 30.1794 256.69 30.4876C256.504 30.7959 256.411 31.1459 256.411 31.5377V37H254.06V31.5377C254.06 31.1459 253.97 30.7959 253.791 30.4876C253.611 30.1794 253.367 29.9353 253.058 29.7555C252.75 29.5692 252.406 29.4761 252.028 29.4761C251.655 29.4761 251.315 29.5724 251.006 29.7651C250.698 29.9514 250.451 30.2018 250.265 30.5165C250.085 30.8248 249.995 31.1652 249.995 31.5377V37H247.644ZM268.817 37.2505C267.931 37.2505 267.122 37.0225 266.39 36.5665C265.664 36.1105 265.083 35.4971 264.646 34.7265C264.216 33.9558 264 33.1048 264 32.1735C264 31.4735 264.126 30.8184 264.376 30.2083C264.627 29.5917 264.97 29.0522 265.407 28.5898C265.85 28.121 266.364 27.7549 266.948 27.4916C267.533 27.2282 268.156 27.0966 268.817 27.0966C269.569 27.0966 270.256 27.2571 270.879 27.5783C271.508 27.893 272.041 28.3265 272.478 28.8788C272.915 29.4311 273.233 30.0605 273.432 30.767C273.631 31.4735 273.676 32.2121 273.567 32.9828H266.524C266.614 33.3424 266.762 33.6667 266.968 33.9558C267.173 34.2383 267.433 34.4663 267.748 34.6397C268.063 34.8067 268.419 34.8934 268.817 34.8999C269.228 34.9063 269.601 34.8099 269.935 34.6108C270.275 34.4053 270.558 34.1292 270.783 33.7823L273.181 34.3411C272.79 35.1953 272.205 35.8953 271.428 36.4412C270.651 36.9807 269.781 37.2505 268.817 37.2505ZM266.447 31.2198H271.187C271.117 30.8344 270.966 30.4876 270.734 30.1794C270.51 29.8647 270.23 29.6142 269.896 29.4279C269.562 29.2417 269.203 29.1485 268.817 29.1485C268.432 29.1485 268.075 29.2417 267.748 29.4279C267.42 29.6078 267.141 29.855 266.91 30.1697C266.685 30.478 266.531 30.828 266.447 31.2198ZM283.959 30.9115V37H281.608V31.5281C281.608 31.1491 281.515 30.8055 281.329 30.4973C281.142 30.1826 280.892 29.9353 280.577 29.7555C280.269 29.5692 279.925 29.4761 279.546 29.4761C279.167 29.4761 278.821 29.5692 278.506 29.7555C278.198 29.9353 277.95 30.1826 277.764 30.4973C277.584 30.8055 277.494 31.1491 277.494 31.5281V37H275.144L275.134 27.3663H277.485L277.494 28.2237C277.822 27.8769 278.214 27.6039 278.67 27.4048C279.126 27.1993 279.617 27.0966 280.144 27.0966C280.844 27.0966 281.483 27.27 282.061 27.6168C282.639 27.9572 283.098 28.4164 283.438 28.9944C283.785 29.566 283.959 30.205 283.959 30.9115ZM291.042 29.7169H289.173V37H286.822V29.7169H285.396V27.3663H286.822V24.3413H289.173V27.3663H291.042V29.7169ZM168.129 57V43.5128H176.096V45.8635H170.479V48.5994H175.171V50.95H170.479V57H168.129ZM183.991 47.3663H186.342V57H183.991L183.885 55.8054C183.622 56.2357 183.272 56.5858 182.835 56.8555C182.405 57.1188 181.894 57.2505 181.304 57.2505C180.591 57.2505 179.923 57.1156 179.3 56.8459C178.677 56.5761 178.128 56.2036 177.652 55.7284C177.184 55.2531 176.814 54.704 176.544 54.081C176.281 53.458 176.149 52.7901 176.149 52.0772C176.149 51.39 176.275 50.7445 176.525 50.1408C176.782 49.5371 177.139 49.0073 177.595 48.5513C178.051 48.0953 178.577 47.7388 179.174 47.4819C179.772 47.225 180.414 47.0966 181.101 47.0966C181.737 47.0966 182.305 47.2379 182.806 47.5205C183.314 47.803 183.744 48.1627 184.097 48.5994L183.991 47.3663ZM181.246 54.9866C181.747 54.9866 182.19 54.8613 182.575 54.6108C182.961 54.3604 183.262 54.0232 183.481 53.5993C183.699 53.169 183.808 52.697 183.808 52.1832C183.808 51.6629 183.699 51.1909 183.481 50.767C183.262 50.3367 182.957 49.9963 182.566 49.7458C182.18 49.4954 181.74 49.3701 181.246 49.3701C180.751 49.3701 180.298 49.4986 179.887 49.7555C179.483 50.0059 179.158 50.3431 178.914 50.767C178.677 51.1909 178.558 51.6629 178.558 52.1832C178.558 52.7034 178.68 53.1754 178.924 53.5993C179.168 54.0232 179.492 54.3604 179.897 54.6108C180.308 54.8613 180.758 54.9866 181.246 54.9866ZM194.046 54.1003L196.166 55.2467C195.723 55.8504 195.167 56.3353 194.499 56.7014C193.831 57.0674 193.102 57.2505 192.312 57.2505C191.426 57.2505 190.617 57.0225 189.885 56.5665C189.159 56.1105 188.578 55.5004 188.141 54.7361C187.711 53.9654 187.495 53.1144 187.495 52.1832C187.495 51.4767 187.621 50.8184 187.871 50.2083C188.122 49.5917 188.465 49.0522 188.902 48.5898C189.345 48.121 189.859 47.7549 190.443 47.4916C191.028 47.2282 191.651 47.0966 192.312 47.0966C193.102 47.0966 193.831 47.2796 194.499 47.6457C195.167 48.0118 195.723 48.5031 196.166 49.1196L194.046 50.2564C193.822 49.9995 193.555 49.8004 193.247 49.6591C192.945 49.5178 192.633 49.4472 192.312 49.4472C191.85 49.4472 191.432 49.5756 191.06 49.8325C190.687 50.083 190.392 50.417 190.174 50.8344C189.955 51.2455 189.846 51.6951 189.846 52.1832C189.846 52.6648 189.955 53.1144 190.174 53.5319C190.392 53.9429 190.687 54.2737 191.06 54.5241C191.432 54.7746 191.85 54.8999 192.312 54.8999C192.646 54.8999 192.964 54.8292 193.266 54.6879C193.568 54.5402 193.828 54.3443 194.046 54.1003ZM203.059 49.7169H201.19V57H198.839V49.7169H197.414V47.3663H198.839V44.3413H201.19V47.3663H203.059V49.7169ZM208.814 57.2505C207.927 57.2505 207.118 57.0225 206.386 56.5665C205.66 56.1105 205.079 55.5004 204.642 54.7361C204.212 53.9654 203.997 53.1144 203.997 52.1832C203.997 51.4767 204.122 50.8184 204.373 50.2083C204.623 49.5917 204.967 49.0522 205.403 48.5898C205.847 48.121 206.36 47.7549 206.945 47.4916C207.529 47.2282 208.152 47.0966 208.814 47.0966C209.7 47.0966 210.506 47.3246 211.232 47.7806C211.964 48.2366 212.545 48.8499 212.975 49.6206C213.412 50.3913 213.631 51.2455 213.631 52.1832C213.631 52.8832 213.505 53.5383 213.255 54.1484C213.004 54.7586 212.658 55.298 212.214 55.7669C211.778 56.2293 211.267 56.5922 210.683 56.8555C210.105 57.1188 209.482 57.2505 208.814 57.2505ZM208.814 54.8999C209.283 54.8999 209.703 54.7746 210.076 54.5241C210.448 54.2737 210.74 53.9429 210.952 53.5319C211.171 53.1208 211.28 52.6713 211.28 52.1832C211.28 51.6822 211.168 51.2262 210.943 50.8152C210.724 50.3977 210.426 50.067 210.047 49.8229C209.674 49.5724 209.263 49.4472 208.814 49.4472C208.351 49.4472 207.934 49.5724 207.561 49.8229C207.189 50.0734 206.893 50.4073 206.675 50.8248C206.457 51.2423 206.347 51.6951 206.347 52.1832C206.347 52.6905 206.46 53.1497 206.685 53.5608C206.909 53.9718 207.208 54.2994 207.581 54.5434C207.96 54.781 208.371 54.8999 208.814 54.8999ZM215.14 57L215.131 47.3663H217.481L217.491 48.2237C217.818 47.8769 218.21 47.6039 218.666 47.4048C219.122 47.1993 219.613 47.0966 220.14 47.0966C220.493 47.0966 220.847 47.148 221.2 47.2507L220.275 49.6206C220.031 49.5243 219.787 49.4761 219.543 49.4761C219.164 49.4761 218.817 49.5692 218.502 49.7555C218.194 49.9353 217.947 50.1826 217.761 50.4973C217.581 50.8055 217.491 51.1491 217.491 51.5281V57H215.14ZM228.852 47.3663H231.347L226.077 61.8168H223.582L225.326 57L221.858 47.3663H224.43L226.501 53.7823L228.852 47.3663Z" fill="white"/>
<defs>
<clipPath id="clip0_176_308">
<rect width="8.32089" height="8.32089" fill="white" transform="translate(148.115 0.151367)"/>
</clipPath>
</defs>
</svg>
