<svg width="703" height="219" viewBox="0 0 703 219" fill="none" xmlns="http://www.w3.org/2000/svg">
<path d="M100.543 69.6699L138.793 4.09823C155.368 8.46967 170.078 16.484 182.923 28.1412C195.768 39.7983 205.101 53.6412 210.922 69.6699H100.543ZM70.2163 96.9914L32.7859 31.4197C42.6216 21.7661 54.0529 14.1161 67.0798 8.46967C80.1067 2.82322 94.1754 0 109.286 0C111.654 0 114.386 0.13843 117.482 0.415288C120.579 0.692146 123.402 1.00907 125.952 1.36608L70.2163 96.9914ZM3.55192 136.608C2.45906 132.236 1.59205 127.774 0.950909 123.22C0.309765 118.666 -0.00716293 114.022 0.000122794 109.286C0.000122794 96.3539 2.09477 84.1502 6.28406 72.6752C10.4734 61.2002 16.393 50.7269 24.043 41.2555L79.2324 136.608H3.55192ZM80.0521 214.474C63.477 210.102 48.7234 202.088 35.7913 190.431C22.8591 178.774 13.4787 164.931 7.65014 148.902H117.756L80.0521 214.474ZM109.286 218.572C106.554 218.572 103.774 218.39 100.948 218.026C98.1207 217.661 95.4359 217.297 92.8932 216.933L148.356 121.581L185.786 187.152C175.95 196.806 164.523 204.456 151.503 210.102C138.484 215.749 124.411 218.572 109.286 218.572ZM194.529 177.317L139.34 81.9645H215.02C216.113 86.336 216.98 90.7985 217.621 95.3521C218.262 99.9057 218.579 104.55 218.572 109.286C218.572 122.036 216.343 134.24 211.884 145.897C207.425 157.554 201.64 168.027 194.529 177.317Z" fill="url(#paint0_linear_517_10)"/>
<path d="M174.132 76.4609V98.6689H138.385V135.021L137.97 135.725L121.75 163.209L116.178 172.651V98.6689H80.3684V76.4609H174.132ZM263.127 76.4609V98.6689H198.122V146.145C198.122 147.747 198.537 148.501 198.93 148.894L199.092 149.038C199.518 149.376 200.286 149.701 201.741 149.701H263.127V171.909H201.616C199.185 171.909 196.621 171.508 193.941 170.755L193.404 170.6C190.366 169.698 187.557 168.229 184.988 166.221L184.964 166.202L184.941 166.183C182.353 164.074 180.218 161.402 178.516 158.228L178.504 158.204L178.492 158.182C176.725 154.744 175.914 150.69 175.914 146.145V87.6279C175.914 86.1252 176.195 84.671 176.769 83.2939L176.984 82.8076C177.509 81.6855 178.193 80.6666 179.04 79.7695L179.07 79.7393L179.1 79.709C180.131 78.6779 181.335 77.8784 182.686 77.3154C184.076 76.7362 185.552 76.4609 187.081 76.4609H263.127ZM356.24 76.4609V98.6689H291.236V171.909H269.028V87.6279C269.028 86.1253 269.308 84.6711 269.882 83.2939C270.43 81.9785 271.186 80.7945 272.154 79.7695L272.183 79.7393L272.213 79.709L272.608 79.333C273.547 78.4817 274.616 77.8081 275.798 77.3154L276.323 77.1123C277.558 76.6716 278.856 76.461 280.194 76.4609H356.24ZM255.828 113.019V135.352H198.622V113.019H255.828ZM349.004 113.019V135.352H291.736V113.019H349.004Z" fill="white" stroke="white" stroke-width="5.98783"/>
<path d="M373.081 73.6094C371.742 73.6094 370.433 74.0065 369.319 74.7507C368.205 75.4948 367.337 76.5524 366.825 77.7898C366.312 79.0272 366.178 80.3888 366.439 81.7025C366.701 83.0161 367.346 84.2227 368.293 85.1698C369.24 86.1169 370.447 86.7619 371.76 87.0232C373.074 87.2845 374.435 87.1504 375.673 86.6378C376.91 86.1252 377.968 85.2573 378.712 84.1436C379.456 83.03 379.853 81.7207 379.853 80.3813C379.853 78.5853 379.14 76.8628 377.87 75.5928C376.6 74.3228 374.877 73.6094 373.081 73.6094ZM373.081 85.7989C372.01 85.7989 370.962 85.4812 370.071 84.8859C369.181 84.2906 368.486 83.4445 368.076 82.4545C367.666 81.4646 367.559 80.3753 367.768 79.3244C367.977 78.2735 368.493 77.3082 369.25 76.5505C370.008 75.7929 370.973 75.2769 372.024 75.0679C373.075 74.8588 374.165 74.9661 375.154 75.3762C376.144 75.7862 376.991 76.4806 377.586 77.3715C378.181 78.2624 378.499 79.3098 378.499 80.3813C378.499 81.8182 377.928 83.1961 376.912 84.2121C375.896 85.2281 374.518 85.7989 373.081 85.7989Z" fill="white"/>
<path d="M375.786 79.0238C375.786 78.485 375.572 77.9682 375.191 77.5872C374.81 77.2062 374.294 76.9922 373.755 76.9922H370.369V83.7641H371.723V81.0554H372.712L374.52 83.7641H376.145L374.283 80.9741C374.713 80.8584 375.092 80.605 375.364 80.2527C375.636 79.9003 375.784 79.4686 375.786 79.0238ZM373.755 79.701H371.723V78.3466H373.755C373.934 78.3466 374.107 78.4179 374.234 78.5449C374.361 78.6719 374.432 78.8442 374.432 79.0238C374.432 79.2034 374.361 79.3756 374.234 79.5026C374.107 79.6296 373.934 79.701 373.755 79.701Z" fill="white"/>
<path d="M423.892 78.6153V83.2067H415.839V104.959H411.247V83.2067H403.194V78.6153H423.892ZM425.998 86.1421H430.589V104.959H425.998V86.1421ZM428.331 83.7147C427.653 83.7147 427.083 83.4952 426.619 83.0561C426.154 82.6045 425.922 82.04 425.922 81.3626C425.922 80.6977 426.154 80.1395 426.619 79.6879C427.083 79.2363 427.647 79.0105 428.312 79.0105C428.977 79.0105 429.535 79.2363 429.987 79.6879C430.451 80.1395 430.683 80.6977 430.683 81.3626C430.683 82.04 430.457 82.6045 430.006 83.0561C429.554 83.4952 428.996 83.7147 428.331 83.7147ZM434.965 104.959V86.1421H439.556V87.8168C440.196 87.1394 440.961 86.6062 441.852 86.2174C442.743 85.8159 443.702 85.6152 444.731 85.6152C446.036 85.6152 447.234 85.9226 448.325 86.5372C449.429 87.1519 450.307 87.9736 450.959 89.0023C451.624 87.9736 452.502 87.1519 453.594 86.5372C454.685 85.9226 455.883 85.6152 457.188 85.6152C458.568 85.6152 459.816 85.9539 460.932 86.6313C462.061 87.2962 462.958 88.1931 463.623 89.3221C464.301 90.4386 464.639 91.6868 464.639 93.0667V104.959H460.048V94.2898C460.048 93.5622 459.866 92.8974 459.502 92.2952C459.151 91.6805 458.674 91.1913 458.072 90.8275C457.483 90.4512 456.818 90.263 456.078 90.263C455.337 90.263 454.666 90.4449 454.064 90.8087C453.475 91.1599 452.998 91.6366 452.634 92.2388C452.27 92.8409 452.088 93.5246 452.088 94.2898V104.959H447.497V94.2898C447.497 93.5246 447.321 92.8409 446.97 92.2388C446.619 91.6366 446.142 91.1599 445.54 90.8087C444.938 90.4449 444.267 90.263 443.527 90.263C442.799 90.263 442.134 90.4512 441.532 90.8275C440.93 91.1913 440.447 91.6805 440.083 92.2952C439.732 92.8974 439.556 93.5622 439.556 94.2898V104.959H434.965ZM476.321 105.448C474.59 105.448 473.009 105.003 471.579 104.112C470.162 103.222 469.026 102.024 468.173 100.518C467.333 99.0128 466.913 97.3507 466.913 95.5317C466.913 94.1644 467.157 92.8848 467.646 91.6931C468.136 90.4888 468.807 89.435 469.66 88.5318C470.525 87.6161 471.529 86.901 472.671 86.3867C473.812 85.8724 475.029 85.6152 476.321 85.6152C477.789 85.6152 479.131 85.9288 480.348 86.5561C481.577 87.1707 482.618 88.0175 483.471 89.0963C484.324 90.1752 484.945 91.4045 485.334 92.7845C485.723 94.1644 485.811 95.607 485.598 97.1123H471.843C472.018 97.8148 472.307 98.4483 472.708 99.0128C473.11 99.5648 473.618 100.01 474.232 100.349C474.847 100.675 475.543 100.844 476.321 100.857C477.124 100.869 477.851 100.681 478.504 100.292C479.169 99.891 479.721 99.3515 480.16 98.6741L484.845 99.7655C484.08 101.434 482.938 102.801 481.42 103.868C479.902 104.921 478.203 105.448 476.321 105.448ZM471.692 93.6688H480.95C480.812 92.9162 480.517 92.2388 480.066 91.6366C479.626 91.0219 479.081 90.5327 478.428 90.1689C477.776 89.8051 477.074 89.6232 476.321 89.6232C475.568 89.6232 474.872 89.8051 474.232 90.1689C473.593 90.5202 473.047 91.0031 472.595 91.6178C472.156 92.2199 471.855 92.9036 471.692 93.6688ZM488.365 104.959V76.7336H492.957V104.959H488.365ZM505.465 105.448C503.734 105.448 502.153 105.003 500.723 104.112C499.306 103.222 498.17 102.024 497.317 100.518C496.477 99.0128 496.057 97.3507 496.057 95.5317C496.057 94.1644 496.301 92.8848 496.791 91.6931C497.28 90.4888 497.951 89.435 498.804 88.5318C499.67 87.6161 500.673 86.901 501.815 86.3867C502.956 85.8724 504.173 85.6152 505.465 85.6152C506.933 85.6152 508.275 85.9288 509.492 86.5561C510.721 87.1707 511.763 88.0175 512.616 89.0963C513.469 90.1752 514.09 91.4045 514.478 92.7845C514.867 94.1644 514.955 95.607 514.742 97.1123H500.987C501.162 97.8148 501.451 98.4483 501.852 99.0128C502.254 99.5648 502.762 100.01 503.376 100.349C503.991 100.675 504.687 100.844 505.465 100.857C506.268 100.869 506.996 100.681 507.648 100.292C508.313 99.891 508.865 99.3515 509.304 98.6741L513.989 99.7655C513.224 101.434 512.082 102.801 510.564 103.868C509.047 104.921 507.347 105.448 505.465 105.448ZM500.836 93.6688H510.094C509.956 92.9162 509.661 92.2388 509.21 91.6366C508.771 91.0219 508.225 90.5327 507.573 90.1689C506.92 89.8051 506.218 89.6232 505.465 89.6232C504.712 89.6232 504.016 89.8051 503.376 90.1689C502.737 90.5202 502.191 91.0031 501.739 91.6178C501.3 92.2199 500.999 92.9036 500.836 93.6688ZM523.501 105.298C522.523 105.235 521.576 105.041 520.66 104.714C519.757 104.376 518.954 103.918 518.251 103.341C517.549 102.764 517.01 102.074 516.633 101.271L520.51 99.615C520.66 99.8659 520.905 100.136 521.243 100.424C521.582 100.7 521.984 100.932 522.448 101.12C522.924 101.309 523.445 101.403 524.009 101.403C524.486 101.403 524.938 101.34 525.364 101.214C525.803 101.076 526.155 100.869 526.418 100.593C526.694 100.317 526.832 99.96 526.832 99.5209C526.832 99.0568 526.669 98.6992 526.343 98.4483C526.029 98.1849 525.628 97.9905 525.138 97.865C524.662 97.727 524.198 97.6016 523.746 97.4887C522.554 97.2503 521.444 96.8803 520.415 96.3785C519.399 95.8767 518.578 95.2306 517.95 94.4403C517.336 93.6375 517.028 92.6716 517.028 91.5425C517.028 90.3006 517.355 89.2281 518.007 88.3248C518.672 87.4216 519.531 86.7254 520.585 86.2362C521.651 85.7469 522.799 85.5023 524.028 85.5023C525.521 85.5023 526.888 85.8159 528.13 86.4432C529.385 87.0578 530.376 87.9297 531.103 89.0587L527.472 91.2038C527.296 90.9028 527.052 90.6268 526.738 90.3759C526.424 90.1125 526.067 89.8992 525.665 89.7361C525.264 89.5605 524.844 89.4601 524.405 89.435C523.84 89.41 523.326 89.4601 522.862 89.5856C522.397 89.711 522.021 89.9243 521.733 90.2254C521.457 90.5264 521.319 90.9279 521.319 91.4296C521.319 91.9063 521.507 92.2639 521.883 92.5022C522.259 92.728 522.711 92.9036 523.238 93.0291C523.777 93.1545 524.292 93.2925 524.781 93.443C525.885 93.8068 526.92 94.2522 527.886 94.779C528.864 95.3059 529.648 95.952 530.238 96.7172C530.827 97.4824 531.11 98.3982 531.085 99.4645C531.085 100.681 530.721 101.748 529.993 102.663C529.266 103.567 528.325 104.256 527.171 104.733C526.029 105.21 524.806 105.398 523.501 105.298ZM539.856 105.298C538.877 105.235 537.93 105.041 537.015 104.714C536.111 104.376 535.309 103.918 534.606 103.341C533.904 102.764 533.364 102.074 532.988 101.271L536.864 99.615C537.015 99.8659 537.259 100.136 537.598 100.424C537.937 100.7 538.338 100.932 538.802 101.12C539.279 101.309 539.799 101.403 540.364 101.403C540.841 101.403 541.292 101.34 541.719 101.214C542.158 101.076 542.509 100.869 542.773 100.593C543.049 100.317 543.187 99.96 543.187 99.5209C543.187 99.0568 543.023 98.6992 542.697 98.4483C542.384 98.1849 541.982 97.9905 541.493 97.865C541.016 97.727 540.552 97.6016 540.101 97.4887C538.909 97.2503 537.799 96.8803 536.77 96.3785C535.754 95.8767 534.932 95.2306 534.305 94.4403C533.69 93.6375 533.383 92.6716 533.383 91.5425C533.383 90.3006 533.709 89.2281 534.361 88.3248C535.026 87.4216 535.886 86.7254 536.939 86.2362C538.006 85.7469 539.153 85.5023 540.383 85.5023C541.876 85.5023 543.243 85.8159 544.485 86.4432C545.739 87.0578 546.73 87.9297 547.458 89.0587L543.826 91.2038C543.651 90.9028 543.406 90.6268 543.092 90.3759C542.779 90.1125 542.421 89.8992 542.02 89.7361C541.618 89.5605 541.198 89.4601 540.759 89.435C540.195 89.41 539.68 89.4601 539.216 89.5856C538.752 89.711 538.376 89.9243 538.087 90.2254C537.811 90.5264 537.673 90.9279 537.673 91.4296C537.673 91.9063 537.861 92.2639 538.238 92.5022C538.614 92.728 539.066 92.9036 539.592 93.0291C540.132 93.1545 540.646 93.2925 541.135 93.443C542.239 93.8068 543.274 94.2522 544.24 94.779C545.219 95.3059 546.003 95.952 546.592 96.7172C547.182 97.4824 547.464 98.3982 547.439 99.4645C547.439 100.681 547.075 101.748 546.348 102.663C545.62 103.567 544.679 104.256 543.525 104.733C542.384 105.21 541.161 105.398 539.856 105.298ZM403.947 143.959V117.615H420.468V122.207H408.538V127.551H418.003V132.142H408.538V139.368H420.468V143.959H403.947ZM441.837 132.067V143.959H437.246V133.271C437.246 132.531 437.064 131.86 436.7 131.258C436.336 130.643 435.847 130.16 435.233 129.809C434.63 129.445 433.959 129.263 433.219 129.263C432.479 129.263 431.802 129.445 431.187 129.809C430.585 130.16 430.102 130.643 429.738 131.258C429.387 131.86 429.211 132.531 429.211 133.271V143.959H424.62L424.601 125.142H429.192L429.211 126.817C429.851 126.139 430.616 125.606 431.507 125.217C432.397 124.816 433.357 124.615 434.386 124.615C435.753 124.615 437.001 124.954 438.13 125.631C439.259 126.296 440.156 127.193 440.821 128.322C441.499 129.439 441.837 130.687 441.837 132.067ZM455.672 129.733H452.022V143.959H447.43V129.733H444.645V125.142H447.43V119.234H452.022V125.142H455.672V129.733ZM466.913 144.448C465.181 144.448 463.601 144.003 462.171 143.112C460.753 142.222 459.618 141.024 458.765 139.518C457.924 138.013 457.504 136.351 457.504 134.532C457.504 133.164 457.749 131.885 458.238 130.693C458.727 129.489 459.398 128.435 460.251 127.532C461.117 126.616 462.121 125.901 463.262 125.387C464.404 124.872 465.62 124.615 466.913 124.615C468.38 124.615 469.723 124.929 470.939 125.556C472.169 126.171 473.21 127.018 474.063 128.096C474.916 129.175 475.537 130.405 475.926 131.784C476.315 133.164 476.403 134.607 476.189 136.112H462.434C462.61 136.815 462.898 137.448 463.3 138.013C463.701 138.565 464.209 139.01 464.824 139.349C465.439 139.675 466.135 139.844 466.913 139.857C467.715 139.869 468.443 139.681 469.095 139.292C469.76 138.891 470.312 138.352 470.751 137.674L475.437 138.766C474.671 140.434 473.53 141.801 472.012 142.868C470.494 143.921 468.794 144.448 466.913 144.448ZM462.284 132.669H471.541C471.404 131.916 471.109 131.239 470.657 130.637C470.218 130.022 469.672 129.533 469.02 129.169C468.368 128.805 467.665 128.623 466.913 128.623C466.16 128.623 465.464 128.805 464.824 129.169C464.184 129.52 463.638 130.003 463.187 130.618C462.748 131.22 462.447 131.904 462.284 132.669ZM479.27 143.959L479.251 125.142H483.842L483.861 126.817C484.501 126.139 485.266 125.606 486.157 125.217C487.047 124.816 488.007 124.615 489.036 124.615C489.726 124.615 490.416 124.716 491.105 124.916L489.299 129.545C488.822 129.357 488.346 129.263 487.869 129.263C487.129 129.263 486.451 129.445 485.837 129.809C485.235 130.16 484.752 130.643 484.388 131.258C484.037 131.86 483.861 132.531 483.861 133.271V143.959H479.27ZM503.817 129.733H500.166V143.959H495.575V129.733H492.79V125.142H495.575V119.234H500.166V125.142H503.817V129.733ZM520.966 125.142H525.557V143.959H520.966L520.759 141.626C520.245 142.466 519.561 143.15 518.708 143.677C517.867 144.191 516.87 144.448 515.716 144.448C514.323 144.448 513.019 144.185 511.802 143.658C510.585 143.131 509.513 142.403 508.584 141.475C507.669 140.547 506.947 139.474 506.42 138.257C505.906 137.041 505.649 135.736 505.649 134.344C505.649 133.001 505.894 131.741 506.383 130.561C506.885 129.382 507.581 128.347 508.471 127.457C509.362 126.566 510.391 125.87 511.557 125.368C512.724 124.866 513.978 124.615 515.321 124.615C516.563 124.615 517.673 124.891 518.651 125.443C519.642 125.995 520.483 126.698 521.173 127.551L520.966 125.142ZM515.603 140.026C516.581 140.026 517.447 139.782 518.2 139.292C518.952 138.803 519.542 138.145 519.969 137.317C520.395 136.476 520.608 135.554 520.608 134.551C520.608 133.534 520.395 132.612 519.969 131.784C519.542 130.944 518.946 130.279 518.181 129.79C517.428 129.301 516.569 129.056 515.603 129.056C514.637 129.056 513.753 129.307 512.95 129.809C512.16 130.298 511.526 130.957 511.049 131.784C510.585 132.612 510.353 133.534 510.353 134.551C510.353 135.567 510.591 136.489 511.068 137.317C511.545 138.145 512.178 138.803 512.969 139.292C513.772 139.782 514.65 140.026 515.603 140.026ZM529.307 125.142H533.898V143.959H529.307V125.142ZM531.64 122.715C530.963 122.715 530.392 122.495 529.928 122.056C529.464 121.605 529.231 121.04 529.231 120.363C529.231 119.698 529.464 119.139 529.928 118.688C530.392 118.236 530.956 118.01 531.621 118.01C532.286 118.01 532.844 118.236 533.296 118.688C533.76 119.139 533.992 119.698 533.992 120.363C533.992 121.04 533.766 121.605 533.315 122.056C532.863 122.495 532.305 122.715 531.64 122.715ZM555.51 132.067V143.959H550.919V133.271C550.919 132.531 550.737 131.86 550.373 131.258C550.01 130.643 549.52 130.16 548.906 129.809C548.304 129.445 547.632 129.263 546.892 129.263C546.152 129.263 545.475 129.445 544.86 129.809C544.258 130.16 543.775 130.643 543.411 131.258C543.06 131.86 542.884 132.531 542.884 133.271V143.959H538.293L538.274 125.142H542.865L542.884 126.817C543.524 126.139 544.289 125.606 545.18 125.217C546.071 124.816 547.03 124.615 548.059 124.615C549.426 124.615 550.674 124.954 551.803 125.631C552.933 126.296 553.829 127.193 554.494 128.322C555.172 129.439 555.51 130.687 555.51 132.067ZM559.259 143.959V125.142H563.851V126.817C564.49 126.139 565.256 125.606 566.146 125.217C567.037 124.816 567.997 124.615 569.025 124.615C570.33 124.615 571.528 124.923 572.619 125.537C573.723 126.152 574.601 126.974 575.254 128.002C575.919 126.974 576.797 126.152 577.888 125.537C578.979 124.923 580.178 124.615 581.482 124.615C582.862 124.615 584.11 124.954 585.227 125.631C586.356 126.296 587.253 127.193 587.918 128.322C588.595 129.439 588.934 130.687 588.934 132.067V143.959H584.342V133.29C584.342 132.562 584.16 131.897 583.797 131.295C583.445 130.681 582.969 130.191 582.367 129.827C581.777 129.451 581.112 129.263 580.372 129.263C579.632 129.263 578.961 129.445 578.359 129.809C577.769 130.16 577.292 130.637 576.928 131.239C576.565 131.841 576.383 132.525 576.383 133.29V143.959H571.791V133.29C571.791 132.525 571.616 131.841 571.265 131.239C570.913 130.637 570.437 130.16 569.834 129.809C569.232 129.445 568.561 129.263 567.821 129.263C567.093 129.263 566.429 129.451 565.826 129.827C565.224 130.191 564.741 130.681 564.378 131.295C564.026 131.897 563.851 132.562 563.851 133.29V143.959H559.259ZM600.615 144.448C598.884 144.448 597.304 144.003 595.874 143.112C594.456 142.222 593.321 141.024 592.468 139.518C591.627 138.013 591.207 136.351 591.207 134.532C591.207 133.164 591.452 131.885 591.941 130.693C592.43 129.489 593.101 128.435 593.954 127.532C594.82 126.616 595.823 125.901 596.965 125.387C598.106 124.872 599.323 124.615 600.615 124.615C602.083 124.615 603.425 124.929 604.642 125.556C605.872 126.171 606.913 127.018 607.766 128.096C608.619 129.175 609.24 130.405 609.629 131.784C610.018 133.164 610.105 134.607 609.892 136.112H596.137C596.313 136.815 596.601 137.448 597.003 138.013C597.404 138.565 597.912 139.01 598.527 139.349C599.141 139.675 599.838 139.844 600.615 139.857C601.418 139.869 602.146 139.681 602.798 139.292C603.463 138.891 604.015 138.352 604.454 137.674L609.139 138.766C608.374 140.434 607.233 141.801 605.715 142.868C604.197 143.921 602.497 144.448 600.615 144.448ZM595.986 132.669H605.244C605.106 131.916 604.812 131.239 604.36 130.637C603.921 130.022 603.375 129.533 602.723 129.169C602.071 128.805 601.368 128.623 600.615 128.623C599.863 128.623 599.166 128.805 598.527 129.169C597.887 129.52 597.341 130.003 596.89 130.618C596.451 131.22 596.15 131.904 595.986 132.669ZM630.19 132.067V143.959H625.599V133.271C625.599 132.531 625.417 131.86 625.053 131.258C624.689 130.643 624.2 130.16 623.585 129.809C622.983 129.445 622.312 129.263 621.572 129.263C620.832 129.263 620.154 129.445 619.54 129.809C618.937 130.16 618.454 130.643 618.091 131.258C617.739 131.86 617.564 132.531 617.564 133.271V143.959H612.973L612.954 125.142H617.545L617.564 126.817C618.204 126.139 618.969 125.606 619.859 125.217C620.75 124.816 621.71 124.615 622.738 124.615C624.106 124.615 625.354 124.954 626.483 125.631C627.612 126.296 628.509 127.193 629.174 128.322C629.851 129.439 630.19 130.687 630.19 132.067ZM644.025 129.733H640.374V143.959H635.783V129.733H632.998V125.142H635.783V119.234H640.374V125.142H644.025V129.733ZM403.947 182.959V156.615H419.508V161.207H408.538V166.551H417.702V171.142H408.538V182.959H403.947ZM434.93 164.142H439.521V182.959H434.93L434.723 180.626C434.209 181.466 433.525 182.15 432.672 182.677C431.831 183.191 430.834 183.448 429.68 183.448C428.288 183.448 426.983 183.185 425.766 182.658C424.549 182.131 423.477 181.403 422.548 180.475C421.633 179.547 420.911 178.474 420.385 177.257C419.87 176.041 419.613 174.736 419.613 173.344C419.613 172.001 419.858 170.741 420.347 169.561C420.849 168.382 421.545 167.347 422.436 166.457C423.326 165.566 424.355 164.87 425.522 164.368C426.688 163.866 427.943 163.615 429.285 163.615C430.527 163.615 431.637 163.891 432.616 164.443C433.607 164.995 434.447 165.698 435.137 166.551L434.93 164.142ZM429.567 179.026C430.546 179.026 431.411 178.782 432.164 178.292C432.917 177.803 433.506 177.145 433.933 176.317C434.359 175.476 434.572 174.554 434.572 173.551C434.572 172.534 434.359 171.612 433.933 170.784C433.506 169.944 432.91 169.279 432.145 168.79C431.392 168.301 430.533 168.056 429.567 168.056C428.601 168.056 427.717 168.307 426.914 168.809C426.124 169.298 425.49 169.957 425.013 170.784C424.549 171.612 424.317 172.534 424.317 173.551C424.317 174.567 424.556 175.489 425.032 176.317C425.509 177.145 426.143 177.803 426.933 178.292C427.736 178.782 428.614 179.026 429.567 179.026ZM454.57 177.295L458.71 179.534C457.844 180.714 456.759 181.661 455.454 182.376C454.15 183.091 452.726 183.448 451.183 183.448C449.452 183.448 447.871 183.003 446.441 182.112C445.023 181.222 443.888 180.03 443.035 178.537C442.195 177.032 441.774 175.37 441.774 173.551C441.774 172.171 442.019 170.885 442.508 169.693C442.997 168.489 443.669 167.435 444.522 166.532C445.387 165.616 446.391 164.901 447.532 164.387C448.674 163.872 449.891 163.615 451.183 163.615C452.726 163.615 454.15 163.973 455.454 164.688C456.759 165.403 457.844 166.362 458.71 167.567L454.57 169.787C454.131 169.285 453.61 168.896 453.008 168.621C452.418 168.345 451.81 168.207 451.183 168.207C450.28 168.207 449.464 168.457 448.737 168.959C448.009 169.448 447.432 170.101 447.005 170.916C446.579 171.719 446.366 172.597 446.366 173.551C446.366 174.491 446.579 175.37 447.005 176.185C447.432 176.988 448.009 177.634 448.737 178.123C449.464 178.612 450.28 178.857 451.183 178.857C451.835 178.857 452.456 178.719 453.046 178.443C453.635 178.154 454.143 177.772 454.57 177.295ZM472.174 168.733H468.523V182.959H463.932V168.733H461.147V164.142H463.932V158.234H468.523V164.142H472.174V168.733ZM483.414 183.448C481.683 183.448 480.102 183.003 478.672 182.112C477.255 181.222 476.119 180.03 475.266 178.537C474.426 177.032 474.006 175.37 474.006 173.551C474.006 172.171 474.25 170.885 474.739 169.693C475.229 168.489 475.9 167.435 476.753 166.532C477.618 165.616 478.622 164.901 479.764 164.387C480.905 163.872 482.122 163.615 483.414 163.615C485.145 163.615 486.72 164.061 488.137 164.951C489.567 165.842 490.702 167.04 491.543 168.545C492.396 170.051 492.823 171.719 492.823 173.551C492.823 174.918 492.578 176.197 492.089 177.389C491.599 178.581 490.922 179.635 490.056 180.55C489.203 181.454 488.206 182.162 487.065 182.677C485.936 183.191 484.719 183.448 483.414 183.448ZM483.414 178.857C484.33 178.857 485.151 178.612 485.879 178.123C486.607 177.634 487.177 176.988 487.591 176.185C488.018 175.382 488.231 174.504 488.231 173.551C488.231 172.572 488.012 171.681 487.573 170.879C487.146 170.063 486.563 169.417 485.823 168.94C485.095 168.451 484.292 168.207 483.414 168.207C482.511 168.207 481.695 168.451 480.968 168.94C480.24 169.43 479.663 170.082 479.237 170.897C478.81 171.713 478.597 172.597 478.597 173.551C478.597 174.542 478.816 175.438 479.256 176.241C479.695 177.044 480.278 177.684 481.006 178.161C481.746 178.625 482.548 178.857 483.414 178.857ZM495.771 182.959L495.752 164.142H500.344L500.363 165.817C501.002 165.139 501.768 164.606 502.658 164.217C503.549 163.816 504.508 163.615 505.537 163.615C506.227 163.615 506.917 163.716 507.607 163.916L505.801 168.545C505.324 168.357 504.847 168.263 504.371 168.263C503.63 168.263 502.953 168.445 502.338 168.809C501.736 169.16 501.253 169.643 500.889 170.258C500.538 170.86 500.363 171.531 500.363 172.271V182.959H495.771ZM522.553 164.142H527.426L517.134 192.367H512.26L515.666 182.959L508.892 164.142H513.916L517.962 176.674L522.553 164.142Z" fill="white"/>
<defs>
<linearGradient id="paint0_linear_517_10" x1="117.977" y1="-13.1673" x2="136.147" y2="234.109" gradientUnits="userSpaceOnUse">
<stop stop-color="#300FEA"/>
<stop offset="1" stop-color="#EB00FF"/>
</linearGradient>
</defs>
</svg>
